<?xml version="1.0" encoding="utf-8"?>
<!-- Generator: Adobe Illustrator 18.0.0, SVG Export Plug-In . SVG Version: 6.00 Build 0)  -->
<!DOCTYPE svg PUBLIC "-//W3C//DTD SVG 1.1//EN" "http://www.w3.org/Graphics/SVG/1.1/DTD/svg11.dtd">
<svg version="1.1" id="Capa_1" xmlns="http://www.w3.org/2000/svg" xmlns:xlink="http://www.w3.org/1999/xlink" x="0px" y="0px"
	 viewBox="0 0 16 16" enable-background="new 0 0 16 16" xml:space="preserve">
<g>
	<path fill="#424242" d="M11.6,2.3c0.4,0,0.8,0,1.2,0l0,0c0.2,0,0.4,0,0.6,0.1c0.5,0.1,1,0.2,1.4,0.3C15,2.8,15,2.9,15,3
		c0,0.2,0,0.5,0,0.7c0,0.1,0,0.1,0.1,0.2c0.1,0,0.2,0.1,0.3,0.1c0.1,0.1,0.2,0.2,0.2,0.3c0,3,0,6,0,9c0,0,0,0.1,0,0.2
		c-0.1,0-0.1,0-0.1,0c-2,0-4,0-6.1,0c-0.2,0-0.4,0-0.6,0.1c-0.3,0.2-0.6,0.2-0.9,0.2c-0.2,0-0.5-0.1-0.6-0.2
		c-0.1-0.1-0.2-0.1-0.4-0.1c-2,0-4.1,0-6.1,0c-0.1,0-0.3,0-0.4,0c0-3.1,0-6.2,0-9.3l0.1-0.1C0.6,3.9,0.8,3.8,1,3.8
		c0.1,0,0.1-0.1,0.1-0.2c0-0.2,0-0.4,0-0.6c0-0.1,0-0.2,0.1-0.2c0,0,0,0,0.1,0C1.9,2.6,2.4,2.5,3,2.4c0.1,0,0.2,0,0.3,0
		c0.4,0,0.8,0,1.2,0l0,0c0.4,0.1,0.7,0.1,1.1,0.2C6.2,2.7,6.8,3,7.3,3.3C7.6,3.4,7.8,3.5,8,3.7c0.1,0,0.1,0.1,0.2,0
		c0.3-0.2,0.6-0.4,0.9-0.6c0.7-0.4,1.4-0.6,2.2-0.7C11.4,2.4,11.5,2.4,11.6,2.3z M14.6,12c0-0.1,0-0.1,0-0.2c0-2.8,0-5.6,0-8.4
		c0-0.3,0-0.3-0.3-0.4c-0.7-0.2-1.4-0.3-2.1-0.3c-0.3,0-0.6,0-0.9,0.1c-0.3,0.1-0.6,0.2-1,0.3C9.7,3.2,9.1,3.6,8.6,4
		C8.5,4,8.4,4.1,8.4,4.3c0,1.6,0,3.3,0,4.9v0.1l0,0c-0.1,0-0.1-0.1-0.2-0.1c0,1.2,0,2.3,0,3.5c0.2-0.1,0.4-0.2,0.7-0.3
		c0.8-0.3,1.5-0.5,2.3-0.6c0.4,0,0.7-0.1,1.1-0.1c0.3,0,0.6,0,0.9,0c0.3,0,0.6,0.1,0.8,0.2C14.2,11.9,14.4,12,14.6,12z M7.8,9.4
		L7.8,9.4c0-0.1,0-0.1,0-0.1c0-0.5,0-1.1,0-1.6c0-1.1,0-2.2,0-3.4c0-0.1,0-0.2-0.1-0.3C7.5,3.9,7.4,3.9,7.3,3.8
		C6.9,3.5,6.5,3.3,6,3.1C5.7,3,5.3,2.9,5,2.9C4.5,2.8,4.1,2.8,3.7,2.8c-0.3,0-0.7,0-1,0.1C2.4,2.9,2.1,3,1.8,3.1
		c-0.1,0-0.2,0.1-0.2,0.2c0,2.9,0,5.7,0,8.6V12c0.1,0,0.1,0,0.2,0c0.5-0.2,1-0.3,1.5-0.3c0.4,0,0.8,0,1.1,0s0.7,0.1,1,0.1
		c0.6,0.1,1.2,0.3,1.8,0.5c0.2,0.1,0.5,0.2,0.7,0.3c0-1.1,0-2.3,0-3.4l0,0C7.9,9.3,7.8,9.3,7.8,9.4z"/>
	<path fill="#424242" d="M13.8,10.2c0,0.1-0.1,0.2-0.1,0.3c-0.2,0-0.4-0.1-0.5-0.1c-0.2,0-0.4,0-0.7-0.1c-0.1,0-0.2,0-0.2,0
		c-0.7,0-1.3,0.1-2,0.3c-0.3,0.1-0.5,0.2-0.8,0.3H9.4c0,0-0.1,0-0.1-0.1s-0.1-0.1-0.1-0.2c0.3-0.2,0.7-0.3,1-0.4
		c0.3-0.1,0.7-0.2,1-0.2c0.2,0,0.5-0.1,0.7-0.1c0.3,0,0.5,0,0.8,0s0.7,0,1,0.2C13.7,10.2,13.8,10.2,13.8,10.2z"/>
	<path fill="#424242" d="M13.8,4.3c0,0.1-0.1,0.2-0.1,0.4c-1.5-0.4-3-0.1-4.4,0.5L9.2,5.1c0.1-0.1,0-0.1,0-0.2
		C10.7,4.2,12.2,3.9,13.8,4.3z"/>
	<path fill="#424242" d="M9.2,5.9c1.1-0.7,3.6-1,4.6-0.6v0.1c0,0.2-0.1,0.3-0.3,0.2c-0.3,0-0.5-0.1-0.8-0.1c-0.2,0-0.4,0-0.6,0
		c-0.4,0-0.8,0.1-1.1,0.1c-0.5,0.1-1,0.3-1.5,0.5C9.4,6.2,9.3,6.1,9.2,5.9C9.3,6,9.3,6,9.2,5.9z"/>
	<path fill="#424242" d="M9.2,8.8c0.3-0.1,0.6-0.3,0.9-0.4c0.4-0.1,0.9-0.2,1.3-0.3C11.8,8,12.2,8,12.6,8s0.7,0.1,1.1,0.2
		c0.1,0,0.1,0,0.1,0.1c0,0,0,0,0,0.1c0,0.2,0,0.2-0.2,0.1c-0.3,0-0.6-0.1-0.9-0.1c-0.2,0-0.4,0-0.6,0c-0.5,0-1,0.1-1.5,0.2
		C10.2,8.7,9.8,8.9,9.5,9C9.4,9,9.3,9,9.3,8.9C9.3,9,9.3,8.9,9.2,8.8z"/>
	<path fill="#424242" d="M13.8,7.3c0,0.1,0,0.1,0,0.2s0,0.1,0,0.2c-0.1,0-0.3-0.1-0.4-0.1c-0.3,0-0.5-0.1-0.8-0.1s-0.6,0-0.9,0
		c-0.5,0.1-1,0.2-1.5,0.3C9.9,8,9.7,8,9.5,8.1C9.4,8.2,9.3,8.1,9.3,8c0,0,0-0.1-0.1-0.1c0,0,0-0.1-0.1-0.1c0.7-0.3,1.5-0.6,2.3-0.7
		C12.3,7.1,13.1,7.1,13.8,7.3z"/>
	<path fill="#424242" d="M13.8,9.2c0,0.1,0,0.1,0,0.2c0,0.2-0.1,0.2-0.3,0.2c-0.3,0-0.6-0.1-0.9-0.1c-0.2,0-0.5,0-0.7,0
		c-0.3,0-0.7,0.1-1,0.1c-0.4,0.1-0.8,0.2-1.2,0.4c-0.1,0-0.2,0.1-0.3,0.1s-0.1,0-0.2-0.1c0-0.1-0.1-0.1-0.1-0.2
		C10.7,9.1,12.2,8.8,13.8,9.2z"/>
	<path fill="#424242" d="M9.4,7.1C9.3,7,9.3,6.9,9.2,6.8c0.6-0.3,1.3-0.5,2-0.7c0.9-0.1,1.8,0,2.6,0.2c0,0.1,0,0.1,0,0.2
		s-0.1,0.2-0.2,0.1c-0.4,0-0.7-0.1-1.1-0.1c-0.3,0-0.7,0-1,0c-0.5,0.1-0.9,0.2-1.3,0.3C10,6.9,9.8,7,9.5,7.1H9.4z"/>
	<path fill="#424242" d="M4.7,7.5C4,7.4,3.2,7.4,2.4,7.7c0-0.1,0-0.1,0-0.1c0-1,0-2.1,0-3.1c0-0.1,0-0.2,0.2-0.2
		C3,4.2,3.4,4.1,3.8,4.1c0.3,0,0.6,0,0.9,0c0.1,0,0.1,0,0.1,0.1c0,1,0,2.1,0,3.1C4.8,7.4,4.7,7.5,4.7,7.5z"/>
	<path fill="#424242" d="M7.1,10.8C7,10.9,6.9,11,6.9,11.1c-0.7-0.3-1.4-0.5-2.1-0.6s-1.5-0.1-2.2,0.1c0-0.1,0-0.1-0.1-0.2
		c0-0.1,0-0.1,0-0.2C2.7,10.1,2.9,10,3.2,10s0.6,0,0.9,0c0.4,0,0.8,0.1,1.2,0.1c0.4,0.1,0.8,0.2,1.2,0.3C6.6,10.5,6.8,10.6,7.1,10.8
		C7,10.7,7,10.8,7.1,10.8z"/>
	<path fill="#424242" d="M2.4,8.2c0.1,0,0.2-0.1,0.3-0.1c0.6,0,1.1-0.1,1.6,0c0.5,0,1,0.1,1.4,0.2c0.4,0.1,0.8,0.3,1.2,0.4
		C7,8.7,7,8.8,6.9,9c0,0.1,0,0.1-0.1,0.1C6.5,9,6.2,8.8,5.8,8.7c-0.3-0.1-0.7-0.2-1-0.2c-0.2,0-0.5-0.1-0.7-0.1
		c-0.3,0-0.6,0-0.8,0.1c-0.3,0-0.5,0-0.7,0.1c0,0-0.1,0-0.1-0.1S2.5,8.3,2.4,8.2z"/>
	<path fill="#424242" d="M2.5,9.6c0-0.1-0.1-0.2-0.1-0.4C4,8.8,5.6,9,7,9.8c0,0.1,0,0.2-0.1,0.3C5.5,9.5,4.1,9.2,2.5,9.6z"/>
	<path fill="#424242" d="M5.1,5.2c0.4,0.1,0.8,0.2,1.2,0.3C6.5,5.6,6.7,5.7,7,5.8c0,0,0.1,0.1,0,0.2c0,0-0.1,0.1-0.1,0.2
		C6.7,6.1,6.6,6,6.4,6C6,5.9,5.6,5.7,5.2,5.6c-0.1,0-0.1-0.1-0.1-0.2C5.1,5.4,5.1,5.3,5.1,5.2z"/>
	<path fill="#424242" d="M5.1,4.2c0.2,0,0.4,0.1,0.5,0.1C6.1,4.4,6.5,4.6,7,4.8c0,0,0.1,0.1,0,0.2C6.9,5.2,6.9,5.2,6.7,5.1
		C6.3,5,6,4.8,5.6,4.7c-0.1,0-0.3-0.1-0.4-0.1L5.1,4.5C5.1,4.4,5.1,4.3,5.1,4.2z"/>
	<path fill="#424242" d="M5.1,7.2c0.7,0.1,1.3,0.3,2,0.6l0,0C6.9,8.2,6.9,8.2,6.6,8C6.2,7.8,5.7,7.7,5.3,7.6c-0.1,0-0.1-0.1-0.1-0.1
		V7.4C5.1,7.3,5.1,7.3,5.1,7.2z"/>
	<path fill="#424242" d="M5.1,6.2c0.1,0,0.3,0.1,0.4,0.1C6,6.4,6.5,6.5,7,6.8c0.1,0,0.1,0.1,0,0.1V7c0,0.1-0.1,0.1-0.2,0.1
		C6.5,6.9,6.2,6.8,5.9,6.7c-0.2,0-0.4-0.1-0.6-0.1c-0.1,0-0.2-0.1-0.2-0.2C5.1,6.3,5.1,6.3,5.1,6.2z"/>
</g>
</svg>
