<?xml version="1.0" encoding="utf-8"?>
<!-- Generator: Adobe Illustrator 18.0.0, SVG Export Plug-In . SVG Version: 6.00 Build 0)  -->
<!DOCTYPE svg PUBLIC "-//W3C//DTD SVG 1.1//EN" "http://www.w3.org/Graphics/SVG/1.1/DTD/svg11.dtd">
<svg version="1.1" id="Capa_1" xmlns="http://www.w3.org/2000/svg" xmlns:xlink="http://www.w3.org/1999/xlink" x="0px" y="0px"
	 viewBox="0 0 16 16" enable-background="new 0 0 16 16" xml:space="preserve">
<g>
	<path fill="#424242" d="M0.1,12.2c0-0.2,0.1-0.3,0.1-0.5c0.2-0.6,0.3-1.1,0.5-1.7C0.8,9.8,0.9,9.6,1,9.5c0.2-0.2,0.3-0.2,0.6-0.3
		C2.2,9,2.9,8.8,3.5,8.6c0.1,0,0.3-0.1,0.5-0.1C4,8.7,3.9,9,3.9,9.2c-0.3,0-0.5,0.2-0.5,0.5c0,0.1,0,0.3,0,0.4v0.1
		c0,0.4,0,0.8,0,1.2c0,0.1,0,0.2,0,0.3c0,0.2,0,0.5,0.1,0.7s0.2,0.3,0.3,0.4l0,0c0,0,0,0.1-0.1,0.1c-0.2,0-0.3,0-0.5-0.1
		c-0.1,0-0.1,0-0.1,0.1c0,0,0,0,0,0.1s0,0.1,0.1,0.1C3.4,13,3.7,13,3.9,13c0.2,0,0.3,0.1,0.5,0.1c0.1,0,0.1,0,0.2,0L4.7,13
		c0-0.1,0-0.1-0.1-0.1s-0.2,0-0.3,0c0,0-0.1,0-0.2,0c0.1-0.1,0.2-0.2,0.2-0.3c0.1-0.2,0.2-0.3,0.2-0.5c0-0.8,0-1.6,0-2.4
		c0-0.2-0.1-0.3-0.2-0.4c0,0-0.1,0-0.1-0.1C4.1,9.1,4.1,9,4.1,8.9s0-0.1,0-0.2c0-0.1,0-0.2,0-0.2c0-0.1,0.1,0,0.2,0
		C4.4,8.7,4.6,8.9,4.8,9C5,9.1,5.2,9.2,5.4,9.2c0.2,0,0.4,0,0.6,0c0.4,0,0.8-0.1,1.1-0.4c0.1-0.1,0.2-0.2,0.3-0.3
		c0,0,0.1-0.1,0.2-0.1l0.1,0.1c0.1,0.1,0,0.3,0,0.4c0,0.2,0,0.4,0,0.5c0,0.4,0,0.7,0,1.1c0,0.3,0,0.6,0,0.9c0,0.1-0.1,0.2-0.2,0.3
		c-0.3,0.1-0.4,0.5-0.2,0.8c0.2,0.3,0.6,0.3,0.8,0.1c0.2-0.2,0.3-0.6,0-0.9c-0.2-0.1-0.2-0.3-0.2-0.5s0-0.5,0-0.7c0-0.1,0-0.3,0-0.4
		c0-0.2,0-0.5,0-0.7C8,9.3,8,9,8,8.7c0-0.1,0-0.2,0-0.3c0.3,0.1,0.5,0.2,0.7,0.2C9.3,8.8,9.8,9,10.4,9.2c0.2,0.1,0.4,0.2,0.4,0.4
		c0.1,0.3,0.2,0.6,0.3,0.9c0.1,0.4,0.2,0.8,0.3,1.2c0,0.2,0.1,0.5,0.1,0.7c0,0.1,0,0.2-0.2,0.2c-0.5,0.2-1.1,0.3-1.6,0.5
		c-0.3,0.1-0.6,0.1-1,0.2c-0.3,0-0.6,0.1-0.8,0.1c-0.1,0-0.3,0-0.4,0c-0.8,0.1-1.5,0.1-2.3,0.1c-0.3,0-0.6,0-0.9-0.1
		c-0.2,0-0.4,0-0.6-0.1c-0.2,0-0.5-0.1-0.7-0.1c-0.3-0.1-0.6-0.1-1-0.2c-0.3-0.1-0.7-0.2-1-0.3s-0.5-0.2-0.8-0.3
		c-0.1,0-0.1-0.1-0.2-0.2C0.1,12.4,0.1,12.3,0.1,12.2z"/>
	<path fill="#424242" d="M5.8,1.7c0.1,0,0.2,0,0.2,0c0.3,0,0.7,0.1,1,0.1c0.2,0,0.3,0,0.5,0.1c0,0.1,0,0.2-0.1,0.3v0.1v0.1
		c0.3,0.1,0.3,0.3,0.4,0.5c0,0.2,0,0.4,0,0.6s0,0.4,0,0.6S7.7,4.5,7.7,4.7c0.1,0,0.2,0.2,0.2,0.3c0,0.1,0,0.3,0,0.4
		c0,0.2,0,0.3-0.1,0.5c0,0.1,0,0.1-0.1,0.2c-0.1,0-0.2,0.2-0.2,0.4C7.4,6.7,7.3,6.9,7.2,7.1v0.1c0,0.2,0.1,0.4,0.1,0.7
		c0,0.2,0,0.3,0,0.5S7.1,8.7,7,8.8C6.7,8.9,6.4,9,6.1,9c-0.4,0-0.7,0-1-0.1C4.9,8.8,4.7,8.7,4.6,8.6C4.5,8.4,4.4,8.3,4.5,8.1
		c0-0.1,0-0.2,0-0.3c0-0.2,0-0.4,0-0.5c0-0.2-0.1-0.3-0.1-0.5C4.3,6.7,4.3,6.5,4.2,6.4c0-0.1-0.1-0.1-0.1-0.2C4,6.1,3.9,6,3.9,5.8
		c0-0.3-0.1-0.6-0.1-0.8V4.9c0.1-0.1,0.1-0.3,0.1-0.4c0,0,0,0,0-0.1c0-0.2,0-0.4,0-0.7c0-0.2,0-0.4,0-0.7s0.2-0.6,0.5-0.7
		c0.1,0,0.2-0.1,0.2-0.2C4.7,2,4.8,1.8,5.1,1.8h0.1C5.4,1.7,5.6,1.7,5.8,1.7z M5.1,8c0,0.1,0,0.1,0,0.2c0,0.1,0.1,0.2,0.2,0.3
		c0.3,0.2,0.6,0.3,0.9,0.2s0.5-0.2,0.6-0.4C7,8.1,7,7.9,7,7.7c0-0.2,0-0.3,0-0.5c0,0,0-0.1,0.1-0.2c0.2-0.3,0.4-0.7,0.4-1.1
		c0-0.2,0-0.4,0-0.6V5.2c0.1-0.2,0.1-0.3,0-0.5C7.4,4.5,7.3,4.2,7.2,4C7,3.8,6.9,3.8,6.7,3.8C6.6,3.8,6.4,3.9,6.3,4
		C6,4.1,5.7,4.1,5.4,4C5.3,3.9,5.2,3.8,5,3.8c-0.1-0.1-0.3,0-0.4,0.1c0,0.2-0.1,0.4-0.2,0.6S4.3,4.9,4.3,5.1s0,0.4,0.1,0.6
		c0,0.3,0.1,0.6,0.1,0.9c0,0.2,0.1,0.4,0.3,0.5C5,7.3,5.2,7.4,5.3,7.6C5.5,7.7,5.7,7.8,6,7.7c0.1,0,0.3-0.1,0.4-0.2h0.1l0,0
		c0,0-0.1,0-0.1,0.1C6.1,7.9,5.8,8,5.5,8C5.4,8,5.2,8,5.1,8z"/>
	<path fill="#424242" d="M12.2,7.7c0.1,0.4,0.3,0.7,0.4,1c0.1,0.4,0.1,0.8-0.2,1.1c-0.2,0.3-0.4,0.6-0.5,1c-0.1,0.2-0.1,0.5-0.2,0.7
		c0-0.1-0.1-0.2-0.1-0.4c-0.2-0.5-0.3-1.1-0.6-1.6c0-0.1-0.1-0.1-0.1-0.2c-0.2-0.3-0.2-0.6-0.1-0.9c0.1-0.2,0.2-0.5,0.3-0.7
		c0,0,0,0,0-0.1C11.1,7.8,11,7.9,11,8c-0.3,0.2-0.5,0.5-0.6,0.9C10.4,9,10.3,9,10.3,9h-0.1c0,0,0,0,0-0.1s0-0.2,0-0.3
		c0-0.3,0.1-0.5,0.4-0.6c0.1,0,0.1-0.1,0.2-0.1c-0.4,0.1-0.7,0.2-1,0.3c0-0.1,0-0.2,0-0.3c0-0.2,0-0.5,0-0.7c0-0.3,0-0.5,0-0.8
		c0-0.2,0-0.3,0-0.5C9.7,5.2,9.8,4.6,10,4c0.1-0.4,0.3-0.8,0.7-1.1c0.2-0.2,0.5-0.4,0.9-0.4c0.4-0.1,0.7,0,1,0.2
		C12.8,2.8,13,3,13.1,3.2c0.3,0.4,0.5,0.9,0.6,1.5c0,0.2,0,0.4,0.1,0.6c0,0.3,0,0.5,0,0.8c0,0.2,0,0.3,0,0.5c0,0.6,0,1.1,0,1.7
		C13.2,8,12.7,7.9,12.2,7.7z M12.2,4.5c-0.3,0.2-0.6,0.4-0.9,0.6c-0.2,0.1-0.5,0.2-0.7,0.4c-0.1,0-0.1,0-0.2,0.1
		c0,0.1,0,0.3,0.1,0.5c0.1,0.6,0.4,1.1,0.8,1.5c0.3,0.2,0.6,0.3,0.9,0.1c0.2-0.1,0.4-0.3,0.5-0.5c0.3-0.4,0.5-0.8,0.5-1.3
		c0-0.1,0-0.1,0-0.2s0-0.2-0.1-0.3C13,5.3,12.8,5.1,12.7,5C12.5,4.7,12.3,4.6,12.2,4.5z"/>
	<path fill="#424242" d="M12,12.5c0-0.1,0-0.2-0.1-0.4c0-0.2,0-0.4,0-0.6c0-0.3,0.1-0.7,0.2-1c0.1-0.2,0.2-0.3,0.3-0.5
		c0.1-0.1,0.2-0.2,0.3-0.2c0,0.3,0,0.5,0,0.7c0,0.1,0,0.2,0,0.2c0,0.2,0.1,0.3,0.2,0.4c0.1,0.1,0.1,0.1,0.2,0.2
		c-0.1,0-0.3,0-0.4-0.1c0,0.1,0,0.1,0,0.2c0.4-0.2,0.8-0.2,1.2,0c0-0.1,0-0.2,0-0.2c-0.1,0-0.2,0-0.3,0.1c-0.1,0-0.2,0.1-0.3,0
		c0.3-0.2,0.4-0.5,0.4-0.8c0-0.5,0-0.9,0-1.4c0-0.1,0-0.2-0.1-0.4c0-0.1-0.1-0.2-0.2-0.2c-0.2-0.1-0.2-0.2-0.2-0.5
		c0.1,0,0.2,0.1,0.4,0.1c0.5,0.1,0.9,0.3,1.4,0.4c0.2,0.1,0.4,0.2,0.4,0.4c0.1,0.3,0.2,0.7,0.2,1s0.1,0.7,0.1,1
		c0,0.2-0.1,0.3-0.3,0.4c-0.5,0.2-1,0.3-1.5,0.5c-0.3,0.1-0.7,0.1-1,0.2c-0.3,0-0.6,0.1-0.8,0.1C12.2,12.5,12.1,12.5,12,12.5z"/>
	<path fill="#424242" d="M4.3,10.8c0,0.3,0,0.6,0,0.9c0,0.2-0.1,0.4-0.2,0.6c-0.1,0.1-0.2,0.1-0.3,0c-0.2-0.2-0.2-0.4-0.3-0.6
		c0-0.6,0-1.2,0-1.8c0-0.2,0.1-0.4,0.2-0.4c0.3,0,0.5,0.1,0.5,0.4C4.3,10.2,4.3,10.5,4.3,10.8z"/>
	<path fill="#424242" d="M13,10c0.2,0.1,0.3,0.1,0.5,0.2c-0.1-0.3-0.1-0.5-0.2-0.8c0-0.1-0.1-0.2-0.1-0.3V9c0.1-0.1,0.4-0.1,0.4,0.1
		c0,0,0.1,0.1,0.1,0.2c0,0.3,0,0.6,0,0.9c0,0.2,0,0.3,0,0.5s0,0.4-0.1,0.5c0,0.1-0.1,0.2-0.1,0.3c-0.1,0.1-0.2,0.1-0.3,0
		S13,11.2,13,11.1C13,10.6,13,10.3,13,10z"/>
	<path fill="#424242" d="M10,8.2c0,0.2,0,0.5,0,0.7C9.7,8.8,9.3,8.7,9,8.6C9.3,8.5,9.7,8.3,10,8.2z"/>
	<path fill="#424242" d="M12.4,7.8c0.2,0.1,0.5,0.2,0.7,0.3c0.1,0,0.1,0.1,0.1,0.2c0,0.1,0,0.2,0,0.3c0,0,0,0.1-0.1,0.1L13,8.8
		C12.9,8.5,12.7,8.1,12.4,7.8L12.4,7.8z"/>
</g>
</svg>
