<?xml version="1.0" encoding="utf-8"?>
<!-- Generator: Adobe Illustrator 18.0.0, SVG Export Plug-In . SVG Version: 6.00 Build 0)  -->
<!DOCTYPE svg PUBLIC "-//W3C//DTD SVG 1.1//EN" "http://www.w3.org/Graphics/SVG/1.1/DTD/svg11.dtd">
<svg version="1.1" id="Capa_1" xmlns="http://www.w3.org/2000/svg" xmlns:xlink="http://www.w3.org/1999/xlink" x="0px" y="0px"
	 viewBox="0 0 16 16" enable-background="new 0 0 16 16" xml:space="preserve">
<path fill="#424242" d="M15,6.7c-0.1-0.1-0.3-0.1-0.4-0.2c-0.1,0-0.1,0-0.1-0.1c-0.1-0.4-0.1-0.7-0.1-1.1c0-0.1,0-0.2,0.1-0.2
	C14.7,5,14.8,5,15,4.8c0.3-0.1,0.4-0.5,0.3-0.8c-0.1-0.3-0.2-0.5-0.4-0.8c-0.2-0.3-0.6-0.4-0.9-0.3C13.8,3,13.6,3,13.5,3.1
	c-0.1,0.1-0.1,0.1-0.2,0c-0.2-0.2-0.4-0.5-0.7-0.7c0-0.1,0-0.1,0-0.2c0.1-0.1,0.2-0.3,0.2-0.4c0.1-0.4,0-0.7-0.4-0.9
	c-0.3-0.1-0.5-0.2-0.8-0.3c-0.1,0-0.2,0-0.2,0.1c-0.3,0.1-0.5,0.4-0.6,0.7c0,0.1-0.1,0.1-0.1,0.2c-0.1,0.1-0.1,0.1-0.2,0.1
	c-0.3,0-0.7,0-1,0c-0.1,0-0.2,0-0.2-0.1C9.2,1.4,9.2,1.3,9.1,1.2c-0.2-0.4-0.6-0.6-1-0.4C7.9,0.9,7.7,1,7.4,1.1
	C7.1,1.3,7,1.6,7.1,1.9c0,0.2,0.1,0.4,0.2,0.5c0.1,0.1,0.1,0.1,0,0.2C7,2.9,6.8,3.1,6.5,3.3c0,0.1-0.1,0.1-0.2,0.1
	C6.2,3.3,6,3.2,5.9,3.2C5.5,3.1,5.1,3.3,5,3.7C4.9,3.9,4.9,4.1,4.9,4.2c-0.2,0.5,0,0.8,0.4,1c0.1,0.1,0.3,0.2,0.4,0.2
	c0,0,0.1,0,0.1,0.1c0,0.4,0,0.7,0,1.1c0,0.1,0,0.2-0.1,0.2C5.5,6.9,5.4,6.9,5.3,7C4.9,7.2,4.7,7.6,4.9,8C5,8.2,5.1,8.4,5.2,8.6
	C5.4,9,5.7,9.1,6.1,9c0.2-0.1,0.3-0.2,0.5-0.2c0,0,0,0,0.1,0C7,9,7.3,9.3,7.6,9.5c0,0.1,0,0.1,0,0.2C7.5,9.8,7.5,10,7.4,10.1
	c-0.1,0.4,0,0.7,0.4,0.9c0.2,0.1,0.5,0.2,0.7,0.3c0.4,0.2,0.7,0,0.9-0.4c0-0.1,0.1-0.3,0.1-0.4s0.1-0.1,0.2-0.1c0.4,0.1,0.7,0.1,1,0
	c0.1,0,0.2,0,0.2,0.1c0.1,0.1,0.1,0.3,0.2,0.4c0.1,0.4,0.5,0.5,0.8,0.4c0.3-0.1,0.6-0.2,0.9-0.4c0.3-0.2,0.4-0.4,0.3-0.7
	c0-0.2-0.1-0.4-0.2-0.6c-0.1-0.1-0.1-0.1,0-0.2c0.2-0.3,0.5-0.5,0.7-0.8c0,0,0.1,0,0.2,0c0.1,0,0.3,0.1,0.4,0.1c0.5,0.1,0.8,0,1-0.5
	c0.1-0.2,0.1-0.4,0.2-0.6C15.6,7.2,15.4,6.8,15,6.7z M10.1,8.7C8.6,8.7,7.4,7.5,7.4,6s1.2-2.7,2.7-2.7s2.7,1.2,2.7,2.8
	C12.8,7.5,11.6,8.7,10.1,8.7z"/>
<path fill="#424242" d="M6.7,12.7c-0.1,0-0.2-0.1-0.3-0.1c-0.1,0-0.1-0.1-0.1-0.2c0,0,0-0.1,0-0.2c0-0.3,0-0.4,0.3-0.5
	c0.2-0.1,0.3-0.3,0.2-0.5c0-0.2-0.1-0.4-0.2-0.5c-0.1-0.2-0.3-0.3-0.5-0.2c-0.2,0.2-0.4,0.1-0.6-0.1c-0.2-0.2-0.3-0.3-0.2-0.6
	c0.1-0.2,0-0.4-0.2-0.5C5,9.2,4.8,9.1,4.7,9.1C4.5,9,4.2,9.1,4.1,9.4C4,9.7,3.9,9.7,3.6,9.7c-0.2,0-0.4,0-0.5-0.3
	C3,9.2,2.8,9.1,2.6,9.2c-0.2,0-0.3,0.1-0.5,0.2C2,9.5,1.9,9.7,2,9.8c0,0.1,0,0.2,0,0.3c0.1,0.1,0.1,0.1,0,0.2c0,0.1-0.1,0.2-0.2,0.2
	c-0.2,0.2-0.1,0.2-0.4,0.1c-0.3-0.1-0.5,0-0.6,0.3c-0.1,0.1-0.1,0.3-0.2,0.4c0,0.1,0,0.2,0,0.3c0.1,0.2,0.3,0.3,0.5,0.3
	c0.1,0,0.1,0.1,0.1,0.2c0,0.2,0,0.3,0,0.4c0,0.2,0,0.2-0.2,0.3c-0.1,0-0.1,0-0.1,0c-0.2,0.1-0.3,0.4-0.2,0.6
	c0.1,0.1,0.1,0.3,0.2,0.4C1,14,1.2,14.1,1.4,14c0.3-0.1,0.4,0,0.5,0.2c0.2,0.2,0.3,0.3,0.2,0.6c-0.1,0.2,0,0.4,0.2,0.5
	c0.2,0.1,0.3,0.2,0.5,0.2c0.2,0.1,0.4,0,0.5-0.2c0-0.1,0.1-0.2,0.1-0.3c0.1-0.1,0.1-0.1,0.2-0.1c0.1,0,0.3,0,0.4,0
	c0.2,0,0.2,0.1,0.3,0.2c0.1,0,0.1,0.1,0.1,0.1c0.1,0.2,0.3,0.3,0.5,0.2c0.2,0,0.4-0.1,0.5-0.2c0.2-0.1,0.3-0.3,0.2-0.5
	c0-0.1-0.1-0.2-0.1-0.3c-0.1-0.1-0.1-0.1,0-0.2c0.1-0.1,0.2-0.1,0.2-0.2c0.1-0.2,0.3-0.3,0.5-0.2c0.2,0.1,0.4,0,0.5-0.2
	c0.1-0.2,0.1-0.3,0.2-0.5C7,13,6.9,12.8,6.7,12.7z M3.8,13.9c-0.9,0-1.6-0.7-1.6-1.6c0-0.9,0.7-1.6,1.6-1.6c0.9,0,1.6,0.7,1.6,1.6
	C5.4,13.1,4.6,13.9,3.8,13.9z"/>
<path fill="#424242" d="M10.8,13.8L10.8,13.8c-0.3,0-0.3-0.2-0.3-0.3s0.1-0.2,0.2-0.2c0,0,0.1-0.1,0.1-0.2c0-0.2,0-0.3-0.3,0
	c-0.1-0.1-0.2-0.2-0.3-0.1c-0.2,0.1-0.3,0-0.4-0.1c-0.1-0.1-0.2-0.2-0.1-0.3c0.1-0.1,0.1-0.2,0-0.3c-0.1-0.1-0.2-0.2-0.4-0.2
	c-0.1,0-0.2,0.1-0.2,0.2c-0.1,0.2-0.3,0.2-0.4,0.2c-0.1,0-0.2-0.1-0.2-0.2c-0.1-0.1-0.1-0.2-0.3-0.1c-0.1,0-0.1,0.1-0.2,0.1
	c-0.2,0.1-0.2,0.1-0.1,0.3c0,0.1,0,0.2-0.1,0.3C7.7,13,7.6,13.1,7.5,13s-0.2,0-0.3,0.1c-0.1,0.1-0.1,0.1-0.1,0.2
	c0,0.2,0,0.2,0.2,0.3c0.1,0,0.1,0.1,0.1,0.2c0,0.1,0,0.2-0.1,0.3c-0.2,0.1-0.2,0.2-0.1,0.4c0.1,0,0.1,0.1,0.1,0.1
	c0.1,0.1,0.2,0.2,0.3,0.1c0.2-0.1,0.3,0,0.4,0.1c0.1,0,0,0.1,0,0.2c-0.1,0.1,0,0.2,0.1,0.3c0.1,0.1,0.1,0.1,0.2,0.1
	c0.2,0,0.3,0,0.4-0.2C8.8,15,9,15,9.1,15c0.1,0,0.2,0,0.2,0.1c0.1,0.1,0.2,0.2,0.4,0.1c0.1,0,0.1-0.1,0.2-0.1c0.1,0,0.2-0.1,0.1-0.3
	s0-0.3,0.1-0.4c0.1,0,0.2,0,0.3,0c0.1,0,0.2,0,0.3-0.1C10.9,14.1,10.9,13.9,10.8,13.8z M9.1,14.5c-0.5,0-0.9-0.4-0.9-0.9
	s0.4-0.9,0.9-0.9s0.9,0.4,0.9,0.9S9.6,14.5,9.1,14.5z"/>
</svg>
